<svg width="500" height="500" viewBox="0 0 500 500" fill="none" xmlns="http://www.w3.org/2000/svg">
<path d="M464.3 121.5L462.9 119.2L460.2 119.1C459.9 119.1 459.6 119.1 459.3 119.1C458.8 119.1 458.2 119.1 457.6 119.1C421 119.1 364.2 151.2 316.6 183.4C348.8 135.7 380.9 79 380.9 42.4C380.9 41.9 380.9 41.3 380.9 40.8C380.9 40.5 380.9 40.2 380.9 39.9L380.8 37.2L378.5 35.8C339.8 12.3 295.3 0 250 0C204.7 0 160.2 12.3 121.5 35.7L119.2 37.1L119.1 39.8C119.1 40.1 119.1 40.4 119.1 40.7C119.1 41.2 119.1 41.8 119.1 42.3C119.1 78.9 151.2 135.7 183.4 183.3C135.7 151.2 78.9 119 42.3 119C41.7 119 41.2 119 40.6 119C40.3 119 40 119 39.7 119L37 119.1L35.6 121.4C12.3 160.2 0 204.7 0 250C0 295.3 12.3 339.8 35.7 378.5L37.1 380.8L39.8 380.9C40.1 380.9 40.4 380.9 40.7 380.9C41.2 380.9 41.8 380.9 42.4 380.9C79 380.9 135.8 348.8 183.4 316.6C151.2 364.3 119.1 421 119.1 457.6C119.1 458.2 119.1 458.7 119.1 459.2C119.1 459.5 119.1 459.8 119.1 460.1L119.2 462.8L121.5 464.2C160.2 487.7 204.7 500 250 500C295.3 500 339.8 487.7 378.5 464.3L380.8 462.9L380.9 460.2C380.9 459.9 380.9 459.6 380.9 459.3C380.9 458.8 380.9 458.2 380.9 457.7C380.9 421.1 348.8 364.3 316.6 316.7C364.3 348.9 421 381 457.6 381C458.2 381 458.7 381 459.3 381C459.6 381 459.9 381 460.2 381L462.9 380.9L464.3 378.6C487.7 339.8 500 295.3 500 250C500 204.7 487.7 160.2 464.3 121.5ZM250 373.2C244.6 346.2 241.1 306.8 240.5 264.4L240.4 259.6L235.6 259.5C193.1 258.9 153.7 255.3 126.8 250C153.8 244.6 193.2 241.1 235.6 240.5L240.4 240.4L240.5 235.6C241.1 193.1 244.7 153.7 250 126.8C255.4 153.8 258.9 193.2 259.5 235.6L259.6 240.4L264.4 240.5C306.9 241.1 346.3 244.7 373.2 250C346.2 255.4 306.8 258.9 264.4 259.5L259.6 259.6L259.5 264.4C258.9 306.8 255.4 346.2 250 373.2Z" />
</svg>
