<svg width="500" height="500" viewBox="0 0 500 500" fill="none" xmlns="http://www.w3.org/2000/svg">
<rect width="500" height="500"/>
<path d="M409.007 191.425C388.657 179.712 369.233 167.165 353.161 152.579C261.747 69.622 309.11 0 309.11 0C139.402 49.6223 100.752 128.388 98.9159 187.045L99.0061 187.667C99.0061 187.667 100.539 222.39 123.208 260.047C130.445 272.063 118.585 285.564 100.08 287.431C87.1962 288.734 74.706 283.953 69.2641 275.713C59.5276 260.978 46.6687 237.546 50.3649 221.019C22.4013 246.838 4.28897 278.454 0.641901 313.553C-8.34053 400.102 77.8941 479.262 199.96 496.463C343.015 516.628 478.473 448.303 497.716 349.144C509.739 287.203 473.433 228.5 409.007 191.425Z" fill="black"/>
</svg>
