<svg width="500" height="500" viewBox="0 0 500 500" fill="none" xmlns="http://www.w3.org/2000/svg">
<rect width="500" height="500" fill="white"/>
<path fill-rule="evenodd" clip-rule="evenodd" d="M310.031 3.82643C282.681 -0.760495 254.131 -1.32748 225.227 2.6899C80.5039 22.8075 -18.7263 150.003 2.97857 286.363C24.6835 422.722 159.234 517.423 303.959 497.305C389.666 485.391 459.476 435.849 497.573 369.196C501.236 362.787 500.721 354.994 496.242 349.055C491.761 343.116 484.083 340.041 476.391 341.11C374.614 355.258 279.223 288.653 263.804 191.773C254.296 132.04 277.464 74.9762 320.572 36.6996C326.197 31.706 328.337 24.181 326.109 17.2364C323.884 10.2915 317.668 5.10709 310.031 3.82643Z" fill="black"/>
</svg>
