<svg width="500" height="500" viewBox="0 0 500 500" fill="none" xmlns="http://www.w3.org/2000/svg">
<rect width="500" height="500"/>
<path fill-rule="evenodd" clip-rule="evenodd" d="M230.474 12.2632C234.317 4.71263 241.829 0 250 0C258.171 0 265.683 4.71263 269.526 12.2632L335.443 141.587C337.159 144.958 340.256 147.315 343.851 147.992L481.729 173.638C489.776 175.135 496.38 181.149 498.917 189.285C501.442 197.422 499.477 206.352 493.805 212.523L396.659 318.101C394.134 320.848 392.94 324.662 393.45 328.451L412.752 473.63C413.872 482.105 410.451 490.541 403.835 495.579C397.218 500.604 388.5 501.411 381.15 497.662L255.199 433.586C251.915 431.92 248.085 431.92 244.801 433.586L118.85 497.662C111.5 501.411 102.782 500.604 96.1651 495.579C89.5485 490.541 86.1282 482.105 87.2475 473.63L106.55 328.451C107.06 324.662 105.866 320.848 103.341 318.101L6.19466 212.523C0.523322 206.352 -1.44188 197.422 1.08286 189.285C3.62004 181.149 10.2244 175.135 18.2712 173.638L156.149 147.992C159.744 147.315 162.841 144.958 164.557 141.587L230.474 12.2632Z" fill="black"/>
</svg>
