<svg width="500" height="500" viewBox="0 0 500 500" fill="none" xmlns="http://www.w3.org/2000/svg">

<path d="M27.5463 197.859L266.466 12.8563L267.235 12.2132C276.453 5.07835 288.401 1.00562 300.814 0.163519C313.106 -0.678582 325.782 1.72525 336.578 7.52809C347.394 13.3309 354.591 21.6142 357.603 30.6936C360.615 39.7423 359.463 49.6026 353.58 58.5901L274.897 178.904H404.02C423.61 178.904 441.825 183.145 457.129 190.846C472.393 198.517 484.624 209.617 492.246 223.321C499.867 237.024 501.788 251.386 498.371 264.997C494.935 278.685 486.181 291.562 472.494 302.157L472.454 302.126L233.534 487.128L232.765 487.787C223.547 494.922 211.599 498.994 199.185 499.836C186.894 500.679 174.218 498.275 163.422 492.472C152.606 486.669 145.409 478.386 142.397 469.306C139.385 460.242 140.537 450.397 146.42 441.41L225.103 321.096H95.9796C76.3897 321.096 58.1745 316.84 42.8705 309.154C27.607 301.468 15.3759 290.383 7.75426 276.679C0.132587 262.976 -1.78799 248.614 1.62862 235.003C5.06545 221.3 13.8192 208.438 27.5059 197.843L27.5463 197.874V197.859Z"/>
</svg>
